
        <svg xmlns="http://www.w3.org/2000/svg" xmlns:xlink="http://www.w3.org/1999/xlink" version="1.1" width="3171.4285714285716" 
        height="2310.67039978123" viewBox="0 0 3171.4285714285716 2310.67039978123">
			<rect fill="#364f6b" width="3171.4285714285716" height="2310.67039978123"/>
			<g transform="scale(8.571428571428571) translate(10, 10)">
				<defs id="SvgjsDefs1027"></defs><g id="SvgjsG1028" featureKey="JjiT9w-0" transform="matrix(1.4,0,0,1.4,105,0)" fill="#3fc1c9"><g xmlns="http://www.w3.org/2000/svg"><path d="M57.97,17.951v16.066H41.92V17.951H57.97z M61.725,14.191h-23.56v23.586h23.56V14.191z M57.97,48.155v19.826   c0,8.334-5.366,11.198-7.731,12.034c-0.047,0.017-0.093,0.033-0.141,0.05c0.147-0.148,0.29-0.301,0.43-0.457   c4.487-7.052,2.757-15.387,2.757-15.387H41.92V48.155H57.97z M61.725,44.396h-23.56v23.586h11.759   c0.607,5.462-0.769,12.44-11.759,12.44c0,3.874,0,5,0,5.008c22.857,0,23.56-11.353,23.56-17.448V44.396z M32.092,100h-6.913   c-8.111,0-13.849-2.404-17.054-7.146c-2.57-3.804-2.868-8.221-2.868-11.213V61.085c-0.015-0.171-0.105-3.124-3.379-3.124H0V42.039   h1.878c3.899,0,3.379-3.204,3.379-3.204l0-20.476c0-2.992,0.298-7.409,2.868-11.212C11.33,2.404,17.068,0,25.179,0h6.914v15.919   h-6.914c-1.651,0-4.019,0.397-4.019,2.671c0,0.075-0.001,20.21-0.001,20.21c0.005,0.646-0.047,6.209-3.21,11.199   c3.163,4.99,3.215,10.554,3.209,11.215c0,0,0.003,20.3,0.003,20.346c0,2.559,2.366,2.52,4.018,2.52h6.913V100z M9.012,61.175   l0,20.466c0,2.709,0.252,6.191,2.223,9.105c2.464,3.646,7.155,5.494,13.944,5.494h3.158v-8.4h-3.158   c-2.713,0-7.773-0.823-7.773-6.288c-0.002,0-0.002-0.032-0.002-0.032l0-0.088V61.199C17.403,54.055,13.32,50,13.32,50   s3.797-4.167,4.083-11.184V18.445c-0.008-2.11,0.886-3.458,1.638-4.218c1.359-1.372,3.424-2.067,6.137-2.067h3.158v-8.4h-3.158   c-6.789,0-11.48,1.848-13.944,5.494c-1.97,2.915-2.223,6.397-2.223,9.105l0.001,20.584c0,0.02-0.343,6.648-5.258,6.648v8.816   c5.307,1.29,5.258,6.629,5.258,6.656L9.012,61.175z M67.908,100V84.08h6.914c1.65,0,4.018,0.039,4.018-2.52   c0-0.046,0.002-20.346,0.002-20.346C78.836,60.554,78.889,54.99,82.051,50c-3.162-4.99-3.215-10.553-3.209-11.199   c0,0-0.002-20.135-0.002-20.21c0-2.274-2.367-2.671-4.019-2.671h-6.913V0h6.913c8.11,0,13.849,2.404,17.054,7.147   c2.57,3.803,2.868,8.22,2.868,11.212v20.476c0,0-0.521,3.204,3.38,3.204H100v15.922h-1.877c-3.275,0-3.365,2.953-3.38,3.124   l0.001,20.556c0,2.992-0.298,7.409-2.868,11.213C88.671,97.596,82.934,100,74.822,100H67.908z M90.988,61.175l-0.001-0.11   c-0.001-0.027-0.05-5.366,5.257-6.656v-8.816c-4.914,0-5.258-6.629-5.258-6.648l0.001-20.584c0-2.708-0.253-6.191-2.222-9.105   C86.301,5.608,81.609,3.76,74.821,3.76h-3.158v8.4h3.158c2.712,0,4.777,0.695,6.137,2.067c0.753,0.76,1.646,2.107,1.636,4.218   c0.003,0,0.003,20.371,0.003,20.371C82.883,45.833,86.68,50,86.68,50s-4.082,4.055-4.082,11.199v20.232v0.088v0.032   c-0.003,5.465-5.063,6.288-7.775,6.288h-3.158v8.4h3.158c6.788,0,11.479-1.848,13.943-5.494c1.97-2.914,2.223-6.396,2.223-9.105   V61.175z"></path></g></g><g id="SvgjsG1029" featureKey="j7RXiA-0" transform="matrix(3.8192929106406743,0,0,3.8192929106406743,-4.888704832843494,137.77171642562698)" fill="#f5f5f5"><path d="M4.68 6.140000000000001 q0.44 0.76 0.98 1.86 t1.1 2.31 t1.11 2.46 t1.01 2.31 q0.46 -1.06 1 -2.31 t1.1 -2.46 t1.1 -2.31 t0.98 -1.86 l2.28 0 q0.18 1.52 0.34 3.23 t0.29 3.5 t0.24 3.6 t0.19 3.53 l-2.48 0 q-0.08 -2.42 -0.19 -4.98 t-0.33 -4.96 q-0.22 0.46 -0.52 1.1 t-0.64 1.39 t-0.69 1.55 t-0.68 1.55 t-0.61 1.4 t-0.48 1.11 l-1.88 0 q-0.2 -0.46 -0.48 -1.12 t-0.61 -1.41 t-0.68 -1.55 t-0.69 -1.54 t-0.64 -1.39 t-0.52 -1.09 q-0.22 2.4 -0.33 4.96 t-0.19 4.98 l-2.48 0 q0.08 -1.72 0.19 -3.56 t0.24 -3.65 t0.29 -3.51 t0.34 -3.14 l2.34 0 z M25.82 8.04 q-2.14 0 -3.27 1.33 t-1.13 3.69 q0 1.12 0.27 2.05 t0.8 1.59 t1.32 1.03 t1.85 0.37 q0.66 0 1.14 -0.05 t0.76 -0.13 l0 -4.98 l2.52 0 l0 6.66 q-0.52 0.2 -1.76 0.44 t-2.86 0.24 q-1.5 0 -2.74 -0.48 t-2.11 -1.4 t-1.35 -2.26 t-0.48 -3.08 t0.53 -3.08 t1.45 -2.27 t2.16 -1.41 t2.64 -0.48 q0.96 0 1.71 0.13 t1.29 0.29 t0.89 0.34 t0.49 0.26 l-0.76 2.06 q-0.6 -0.36 -1.49 -0.61 t-1.87 -0.25 z M36.82 6 q3 0 4.59 1.1 t1.59 3.36 q0 2.82 -2.78 3.82 q0.38 0.46 0.86 1.12 t0.98 1.43 t0.96 1.58 t0.82 1.59 l-2.82 0 q-0.38 -0.72 -0.82 -1.45 t-0.89 -1.42 t-0.89 -1.3 t-0.82 -1.09 q-0.28 0.02 -0.48 0.02 l-0.38 0 l-1.22 0 l0 5.24 l-2.52 0 l0 -13.66 q0.92 -0.2 1.96 -0.27 t1.86 -0.07 z M37 8.18 q-0.8 0 -1.48 0.06 l0 4.48 l1.1 0 q0.92 0 1.62 -0.1 t1.17 -0.36 t0.71 -0.7 t0.24 -1.12 q0 -0.64 -0.24 -1.08 t-0.69 -0.7 t-1.07 -0.37 t-1.36 -0.11 z M55.46 6.140000000000001 l0 2.18 l-4.26 0 l0 11.68 l-2.54 0 l0 -11.68 l-4.26 0 l0 -2.18 l11.06 0 z M57.379999999999995 20 l0 -13.86 l8.9 0 l0 2.14 l-6.38 0 l0 3.42 l5.68 0 l0 2.1 l-5.68 0 l0 4.06 l6.86 0 l0 2.14 l-9.38 0 z M75.25999999999999 20.3 q-1.56 0 -2.8 -0.48 t-2.1 -1.41 t-1.32 -2.27 t-0.46 -3.08 t0.53 -3.08 t1.45 -2.27 t2.16 -1.41 t2.66 -0.48 q0.86 0 1.56 0.13 t1.22 0.29 t0.86 0.34 t0.48 0.26 l-0.74 2.06 q-0.48 -0.3 -1.37 -0.57 t-1.93 -0.27 q-0.9 0 -1.68 0.31 t-1.35 0.93 t-0.89 1.56 t-0.32 2.18 q0 1.1 0.25 2.02 t0.77 1.59 t1.32 1.04 t1.92 0.37 q1.34 0 2.18 -0.27 t1.3 -0.51 l0.68 2.06 q-0.24 0.16 -0.65 0.32 t-0.97 0.31 t-1.26 0.24 t-1.5 0.09 z M90.4 6.140000000000001 l2.52 0 l0 13.86 l-2.52 0 l0 -6.14 l-6.02 0 l0 6.14 l-2.52 0 l0 -13.86 l2.52 0 l0 5.54 l6.02 0 l0 -5.54 z"></path></g><g id="SvgjsG1030" featureKey="XxmBkf-0" transform="matrix(1.6517614226005524,0,0,1.6517614226005524,31.795582942545686,215.9483497355078)" fill="#3fc1c9"><path d="M3.26 5.84 l0 14.16 l-1.32 0 l0 -14.16 l1.32 0 z M19.996000000000002 5.84 l0 1.2 l-4.84 0 l0 12.96 l-1.32 0 l0 -12.96 l-4.84 0 l0 -1.2 l11 0 z M38.528000000000006 5.48 q2.46 0 3.86 1.78 l-1.14 0.82 q-1.04 -1.4 -2.76 -1.4 q-1.4 0 -2.27 0.72 t-0.91 1.96 q0 1.08 0.66 1.75 t2.3 1.13 q2.16 0.64 2.88 1.13 t1.09 1.21 t0.37 1.8 q0 1.72 -1.23 2.83 t-3.17 1.15 q-3.06 0 -4.6 -2.14 l1.26 -0.84 q1.06 1.76 3.24 1.78 q1.42 0 2.3 -0.79 t0.88 -1.99 q0 -0.7 -0.25 -1.15 t-0.76 -0.78 t-1.3 -0.6 t-1.85 -0.63 q-1.6 -0.52 -2.37 -1.46 t-0.77 -2.4 q0 -1.72 1.29 -2.8 t3.25 -1.08 z M49.56400000000001 12.92 q0 2.7 1.66 4.45 t4.34 1.79 q2.7 0 4.34 -1.77 t1.66 -4.47 q0 -2.74 -1.64 -4.47 t-4.38 -1.77 q-2.68 0 -4.32 1.76 t-1.66 4.48 z M55.56400000000001 5.48 q2.16 0 3.82 0.95 t2.57 2.66 t0.93 3.83 q0 3.26 -2.06 5.33 t-5.26 2.11 q-3.22 0 -5.24 -2.09 t-2.08 -5.35 q0.02 -3.26 2.04 -5.32 t5.28 -2.12 z M70.72000000000001 5.84 l0 12.96 l6.6 0 l0 1.2 l-7.92 0 l0 -14.16 l1.32 0 z M84.016 5.84 l0 8.5 q0 2.3 0.95 3.54 t2.89 1.28 q3.8 0 3.84 -5.02 l0 -8.3 l1.32 0 l0 8.64 q0 2.78 -1.3 4.32 t-3.86 1.56 q-2.52 0 -3.83 -1.53 t-1.33 -4.25 l0 -8.74 l1.32 0 z M109.492 5.84 l0 1.2 l-4.84 0 l0 12.96 l-1.32 0 l0 -12.96 l-4.84 0 l0 -1.2 l11 0 z M116.54800000000002 5.84 l0 14.16 l-1.32 0 l0 -14.16 l1.32 0 z M124.38400000000001 12.92 q0 2.7 1.66 4.45 t4.34 1.79 q2.7 0 4.34 -1.77 t1.66 -4.47 q0 -2.74 -1.64 -4.47 t-4.38 -1.77 q-2.68 0 -4.32 1.76 t-1.66 4.48 z M130.38400000000001 5.48 q2.16 0 3.82 0.95 t2.57 2.66 t0.93 3.83 q0 3.26 -2.06 5.33 t-5.26 2.11 q-3.22 0 -5.24 -2.09 t-2.08 -5.35 q0.02 -3.26 2.04 -5.32 t5.28 -2.12 z M145.92 5.84 l8.62 12.4 l0.04 0 l0 -12.4 l1.32 0 l0 14.16 l-1.7 0 l-8.62 -12.4 l-0.04 0 l0 12.4 l-1.32 0 l0 -14.16 l1.7 0 z M167.376 5.48 q2.46 0 3.86 1.78 l-1.14 0.82 q-1.04 -1.4 -2.76 -1.4 q-1.4 0 -2.27 0.72 t-0.91 1.96 q0 1.08 0.66 1.75 t2.3 1.13 q2.16 0.64 2.88 1.13 t1.09 1.21 t0.37 1.8 q0 1.72 -1.23 2.83 t-3.17 1.15 q-3.06 0 -4.6 -2.14 l1.26 -0.84 q1.06 1.76 3.24 1.78 q1.42 0 2.3 -0.79 t0.88 -1.99 q0 -0.7 -0.25 -1.15 t-0.76 -0.78 t-1.3 -0.6 t-1.85 -0.63 q-1.6 -0.52 -2.37 -1.46 t-0.77 -2.4 q0 -1.72 1.29 -2.8 t3.25 -1.08 z"></path></g>
			</g>
		</svg>
	